# xmcd
#
# Track frame offsets:
#	150
#	12546
#	32377
#	50653
#	72710
#	85289
#	100947
#	118564
#	138058
#	170628
#	189605
#	215579
#	234783
#	252578
#	273372
#	294163
#	336591
#
# Disc length: 4655 seconds
#
# Revision: 1
# Processed by: cddbd v1.5.2PL0 Copyright (c) Steve Scherf et al.
# Submitted via: audiograbber 1.83.01
#
DISCID=fe122d11
DTITLE=American Made Band - Heart To Haggard
DYEAR=2006
DGENRE=Country
TTITLE0=Swing 42
TTITLE1=All Of Me
TTITLE2=How Cool Is That
TTITLE3=The Wind Beneath My Wings
TTITLE4=I Just Love That Western Swing
TTITLE5=The Devil Went Down To Georgia
TTITLE6=Don't I Know You
TTITLE7=Armadillo Jump
TTITLE8=Silver Wings - Okie From Muskogee
TTITLE9=Over The Rainbow
TTITLE10=Orange Blossom Special
TTITLE11=Three-Quarter Time
TTITLE12=That's Me Without You
TTITLE13=Johnny Guitar
TTITLE14=Magic Man
TTITLE15=Europa
TTITLE16=You Put The Music In Me
EXTD=This album is dedicated to the memory of Bruce Maron, drummer and friend. 
EXTD="Thanks for the music."\n\nhttp://www.americanmadeband.com
EXTT0=
EXTT1=
EXTT2=
EXTT3=
EXTT4=
EXTT5=
EXTT6=
EXTT7=
EXTT8=
EXTT9=
EXTT10=
EXTT11=
EXTT12=
EXTT13=
EXTT14=
EXTT15=
EXTT16=
PLAYORDER=
